                       =!DK GROUP HD BLURAY RELEAESEES!=

===================================================================================


 	
       Iron Man-2(2010)1920*1080p BDRip In[Hindi-Eng]6CH.AC3 By !!!dip



===================================================================================

Storyline:

With the world now aware of his dual life as the armored superhero Iron Man, billionaire inventor Tony Stark faces pressure from the government, the press, and the public to share his technology with the military. Unwilling to let go of his invention, Stark, along with Pepper Potts, and James "Rhodey" Rhodes at his side, must forge new alliances - and confront powerful enemies. 



Cast:


Robert Downey Jr.............Tony Stark / Iron Man
Gwyneth Paltrow..............Pepper Potts
Don Cheadle..................Lt. Col. James 'Rhodey' Rhodes / War Machine
Scarlett Johansson...........Natalie Rushman / Natasha Romanoff / Black Widow
Sam Rockwell.................Justin Hammer
Mickey Rourke................Ivan Vanko / Whiplash
Samuel L. Jackson............Colonel Nick Fury
Clark Gregg..................Agent Coulson
John Slattery................Howard Stark
Garry Shandling..............Senator Stern
Paul Bettany.................Jarvis (voice)
Kate Mara....................U.S. Marshal
Leslie Bibb..................Christine Everhart
Jon Favreau..................Happy Hogan
Christiane Amanpour..........Herself


Directors :Jon Favreau
Writers :Justin Theroux (screenplay), Stan Lee (Marvel comic book)
Stars:Robert Downey Jr., Mickey Rourke and Gwyneth Paltrow
Genre:Action | Adventure | Sci-Fi
Language:English-Hindi
Format :Color, Dubbed,Widescreen
Release Date :7 May 2010 (India)
Run Time :01H:59M:43S
Encoder: Deep Shikha




Video Specifications:



Video

Video
ID : 1
Format : AVC
Format/Info : Advanced Video Codec
Format profile : High@L4.1
Format settings, CABAC : Yes
Format settings, ReFrames : 3 frames
Muxing mode : Header stripping
Codec ID : V_MPEG4/ISO/AVC
Duration : 1h 59mn
Bit rate mode : Variable
Bit rate : 4 184 Kbps
Maximum bit rate : 18.0 Mbps
Width : 1 920 pixels
Height : 1 080 pixels
Display aspect ratio : 16:9
Frame rate : 25.000 fps
Original frame rate : 23.976 fps
Color space : YUV
Chroma subsampling : 4:2:0
Bit depth : 8 bits
Scan type : Progressive
Bits/(Pixel*Frame) : 0.081
Stream size : 3.58 GiB (89%)
Title : !!!dip
Team : DK Group HD Bluray Releases





Audio Specifications:

Audio
ID : 2
Format : AC-3
Format/Info : Audio Coding 3
Mode extension : CM (complete main)
Muxing mode : Header stripping
Codec ID : A_AC3
Duration : 1h 59mn
Bit rate mode : Constant
Bit rate : 448 Kbps
Channel(s) : 6 channels
Channel positions : Front: L C R, Side: L R, LFE
Sampling rate : 48.0 KHz
Bit depth : 16 bits
Compression mode : Lossy
Stream size : 384 MiB (9%)
Title : !!!dip
Language : English


Audio
ID : 3
Format : AC-3
Format/Info : Audio Coding 3
Mode extension : CM (complete main)
Muxing mode : Header stripping
Codec ID : A_AC3
Duration : 1h 59mn
Bit rate mode : Constant
Bit rate : 224 Kbps
Channel(s) : 6 channels
Channel positions : Front: L C R, Side: L R, LFE
Sampling rate : 48.0 KHz
Bit depth : 16 bits
Compression mode : Lossy
Stream size : 191 MiB (100%)
Title : !!!dip
Language : Hindi


Text
ID : 3
Format : UTF-8
Codec ID : S_TEXT/UTF8
Codec ID/Info : UTF-8 Plain Text
Title : !!!dip
Language : English




SAMPLE IMAGE:
  
http://www.pix2links.com/images/97246949622671995062.jpg
 
http://www.pix2links.com/images/89243658095053699597.jpg
 
http://www.pix2links.com/images/92085049924021345847.jpg
 
http://www.pix2links.com/images/04164468772694687390.jpg
 
http://www.pix2links.com/images/11610318724712803507.jpg
 
http://www.pix2links.com/images/46905942926395500179.jpg


VIDEO SAMPLE IS AVAILABLE